<svg width="172" height="53" viewBox="0 0 172 53" fill="none" xmlns="http://www.w3.org/2000/svg">
<g clip-path="url(#clip0_803_3921)">
<path d="M90.6888 -31.7998H-50.6445V109.534H90.6888V-31.7998Z" fill="#2D2D2D"/>
<path d="M90.6888 -31.7998H-50.6445V109.534H90.6888V-31.7998Z" fill="white"/>
<mask id="mask0_803_3921" style="mask-type:luminance" maskUnits="userSpaceOnUse" x="5" y="3" width="30" height="48">
<path d="M5.71289 3.15771H34.4507V50.2688H5.71289V3.15771Z" fill="white"/>
</mask>
<g mask="url(#mask0_803_3921)">
<path fill-rule="evenodd" clip-rule="evenodd" d="M5.71289 15.2249L26.5755 3.17969V5.80147L7.82062 16.6297V43.8584L5.71289 45.0767V15.2249ZM13.469 20.3961L34.3317 8.35087V16.1954L20.2634 24.3171V27.4775L34.3317 19.3545V27.199L20.2634 35.3208V38.4811L34.3317 30.3581V38.2014L13.469 50.2466V20.3961Z" fill="#2D2D2D"/>
</g>
</g>
<line x1="52.0715" y1="44.8462" x2="52.0715" y2="8.15388" stroke="#2D2D2D" stroke-width="0.407692"/>
<path d="M66.178 35V18.9137H76.3895V21.0764H68.6752V25.7584H75.977V27.8542H68.6752V32.8373H76.3895V35H66.178ZM85.7759 35V32.9599H90.5361C91.6508 32.9599 92.5018 32.737 93.0889 32.2911C93.676 31.8377 93.9696 31.1837 93.9696 30.3291V30.3068C93.9696 29.7271 93.8321 29.244 93.5571 28.8575C93.2896 28.4711 92.8883 28.1812 92.3532 27.988C91.8181 27.7873 91.1566 27.687 90.3688 27.687H85.7759V25.7696H89.8672C90.9671 25.7696 91.8032 25.5578 92.3755 25.1342C92.9551 24.7105 93.245 24.1011 93.245 23.3059V23.2836C93.245 22.5404 92.9923 21.9682 92.4869 21.5669C91.989 21.1581 91.283 20.9537 90.3688 20.9537H85.7759V18.9137H90.9708C91.9444 18.9137 92.7879 19.0809 93.5014 19.4153C94.2148 19.7423 94.7648 20.2068 95.1513 20.8088C95.5452 21.4108 95.7421 22.1168 95.7421 22.9269V22.9492C95.7421 23.514 95.612 24.0491 95.3519 24.5545C95.0992 25.0524 94.7499 25.4686 94.304 25.803C93.8655 26.1375 93.3676 26.3493 92.8102 26.4385V26.5388C93.5608 26.6131 94.2148 26.8286 94.7722 27.1854C95.3296 27.5347 95.7607 27.988 96.0654 28.5454C96.3775 29.1028 96.5336 29.7345 96.5336 30.4405V30.4628C96.5336 31.3992 96.3106 32.2093 95.8647 32.8931C95.4262 33.5694 94.7982 34.0896 93.9807 34.4538C93.1632 34.8179 92.1822 35 91.0377 35H85.7759ZM84.5274 35V18.9137H87.0245V35H84.5274ZM103.847 35.2341C102.709 35.2341 101.717 34.9851 100.87 34.4872C100.03 33.9893 99.38 33.2795 98.9192 32.358C98.4585 31.4364 98.2281 30.3402 98.2281 29.0694V29.0471C98.2281 27.7836 98.4585 26.6949 98.9192 25.7807C99.3874 24.8592 100.041 24.1494 100.881 23.6515C101.721 23.1536 102.709 22.9046 103.847 22.9046C104.984 22.9046 105.972 23.1536 106.812 23.6515C107.659 24.1494 108.313 24.8555 108.774 25.7696C109.242 26.6837 109.476 27.7762 109.476 29.0471V29.0694C109.476 30.3476 109.242 31.4476 108.774 32.3691C108.313 33.2832 107.663 33.9893 106.823 34.4872C105.983 34.9851 104.991 35.2341 103.847 35.2341ZM103.858 33.2052C104.512 33.2052 105.069 33.0454 105.53 32.7258C105.998 32.3988 106.359 31.9269 106.611 31.3101C106.871 30.6932 107.001 29.9463 107.001 29.0694V29.0471C107.001 28.1775 106.871 27.4381 106.611 26.8286C106.359 26.2118 105.994 25.7436 105.519 25.424C105.051 25.097 104.493 24.9335 103.847 24.9335C103.207 24.9335 102.65 25.097 102.174 25.424C101.706 25.7436 101.342 26.2118 101.082 26.8286C100.822 27.4381 100.692 28.1775 100.692 29.0471V29.0694C100.692 29.9463 100.818 30.6932 101.071 31.3101C101.331 31.9269 101.695 32.3988 102.163 32.7258C102.639 33.0454 103.204 33.2052 103.858 33.2052ZM116.756 35.2341C115.619 35.2341 114.627 34.9851 113.779 34.4872C112.939 33.9893 112.289 33.2795 111.828 32.358C111.368 31.4364 111.137 30.3402 111.137 29.0694V29.0471C111.137 27.7836 111.368 26.6949 111.828 25.7807C112.297 24.8592 112.951 24.1494 113.79 23.6515C114.63 23.1536 115.619 22.9046 116.756 22.9046C117.893 22.9046 118.881 23.1536 119.721 23.6515C120.568 24.1494 121.222 24.8555 121.683 25.7696C122.151 26.6837 122.385 27.7762 122.385 29.0471V29.0694C122.385 30.3476 122.151 31.4476 121.683 32.3691C121.222 33.2832 120.572 33.9893 119.732 34.4872C118.892 34.9851 117.9 35.2341 116.756 35.2341ZM116.767 33.2052C117.421 33.2052 117.978 33.0454 118.439 32.7258C118.907 32.3988 119.268 31.9269 119.52 31.3101C119.781 30.6932 119.911 29.9463 119.911 29.0694V29.0471C119.911 28.1775 119.781 27.4381 119.52 26.8286C119.268 26.2118 118.904 25.7436 118.428 25.424C117.96 25.097 117.402 24.9335 116.756 24.9335C116.117 24.9335 115.559 25.097 115.084 25.424C114.615 25.7436 114.251 26.2118 113.991 26.8286C113.731 27.4381 113.601 28.1775 113.601 29.0471V29.0694C113.601 29.9463 113.727 30.6932 113.98 31.3101C114.24 31.9269 114.604 32.3988 115.072 32.7258C115.548 33.0454 116.113 33.2052 116.767 33.2052ZM124.715 35V18.6461H127.146V35H124.715ZM132.196 35L127.97 29.4707L129.632 27.8208L135.049 35H132.196ZM126.789 31.076L126.755 28.1775H127.246L131.973 23.1387H134.815L129.331 28.8241L128.762 29.0916L126.789 31.076ZM142.073 35V18.9137H144.57V35H142.073ZM147.624 35V23.1387H150.043V24.9335H150.144C150.448 24.3167 150.898 23.8262 151.492 23.462C152.087 23.0904 152.826 22.9046 153.711 22.9046C155.019 22.9046 156.03 23.2948 156.743 24.0751C157.457 24.8555 157.813 25.9368 157.813 27.3191V35H155.394V27.8208C155.394 26.8918 155.186 26.1895 154.77 25.7139C154.354 25.2308 153.718 24.9892 152.864 24.9892C152.291 24.9892 151.793 25.1156 151.37 25.3683C150.946 25.621 150.619 25.9777 150.389 26.4385C150.158 26.8992 150.043 27.4418 150.043 28.066V35H147.624ZM160.634 35V18.6461H163.064V35H160.634ZM168.114 35L163.889 29.4707L165.55 27.8208L170.968 35H168.114ZM162.707 31.076L162.674 28.1775H163.164L167.891 23.1387H170.734L165.249 28.8241L164.68 29.0916L162.707 31.076Z" fill="#2D2D2D"/>
<defs>
<clipPath id="clip0_803_3921">
<rect width="40.0444" height="53" fill="white"/>
</clipPath>
</defs>
</svg>
